<svg width="435" height="114" viewBox="0 0 435 114" fill="none" xmlns="http://www.w3.org/2000/svg">
<path fill-rule="evenodd" clip-rule="evenodd" d="M62.4583 43.6083C57.9683 40.7751 55 35.8701 55 30.2935C55 21.523 62.3423 14.4131 71.3994 14.4131H99.4969C108.554 14.4131 115.896 21.523 115.896 30.2935C115.896 35.8701 112.928 40.7751 108.438 43.6083C112.928 46.4414 115.896 51.3466 115.896 56.923C115.896 65.6935 108.554 72.8034 99.4969 72.8034H99.198C94.9166 72.8034 91.0184 71.2147 88.0978 68.6128V83.4075C88.0978 92.2761 80.5948 99.4327 71.4738 99.4327C62.4352 99.4327 55 92.3408 55 83.5523C55 77.9759 57.9682 73.0708 62.458 70.2377C57.9682 67.4046 55 62.4995 55 56.923C55 51.3466 57.9683 46.4414 62.4583 43.6083ZM88.0978 56.923C88.0978 62.8595 93.0676 67.6719 99.198 67.6719H99.4969C105.627 67.6719 110.597 62.8595 110.597 56.923C110.597 50.9865 105.627 46.1742 99.4969 46.1742H99.198C93.0676 46.1742 88.0978 50.9865 88.0978 56.923ZM82.7986 46.1742H71.3994C65.2689 46.1742 60.2992 50.9865 60.2992 56.923C60.2992 62.8475 65.2488 67.6524 71.3621 67.6719H71.3795H82.7986V46.1742ZM71.3994 72.8034C71.387 72.8034 71.3745 72.8034 71.3621 72.8034C65.2488 72.8229 60.2992 77.6279 60.2992 83.5523C60.2992 89.4708 65.3246 94.3012 71.4738 94.3012C77.7054 94.3012 82.7986 89.4061 82.7986 83.4075V72.8034H71.3994ZM82.7986 41.0424H71.3994C65.2689 41.0424 60.2992 36.23 60.2992 30.2935C60.2992 24.357 65.2689 19.5446 71.3994 19.5446H82.7986V41.0424ZM99.4969 41.0424H88.0978V19.5446H99.4969C105.627 19.5446 110.597 24.357 110.597 30.2935C110.597 36.23 105.627 41.0424 99.4969 41.0424Z" fill="white"/>
<path d="M143.844 82.2622V14.4131H153.167V82.2622H143.844ZM145.728 53.5828V45.402H183.714V53.5828H145.728ZM145.728 22.6895V14.4131H187.383V22.6895H145.728Z" fill="white"/>
<path d="M194.54 82.2061V34.2384H203.367V82.2622L194.54 82.2061ZM194.441 28.0792V14.4131H203.466V28.0792H194.441Z" fill="white"/>
<path d="M235.66 99.5864C229.511 99.5864 224.519 98.2072 220.684 95.4482C216.849 92.6892 214.403 88.8396 213.345 83.8993L221.974 82.0707C222.701 85.2144 224.255 87.6528 226.635 89.3852C229.015 91.1818 232.024 92.0801 235.66 92.0801C240.024 92.0801 243.297 90.9888 245.478 88.8075C247.727 86.6903 248.851 83.5146 248.851 79.2796V71.6771C247.859 74.0507 246.007 75.9756 243.297 77.451C240.652 78.9269 237.677 79.6649 234.371 79.6649C230.007 79.6649 226.172 78.7025 222.866 76.7777C219.56 74.7887 216.981 72.0297 215.13 68.5007C213.279 64.9722 212.353 60.8976 212.353 56.2785C212.353 51.5947 213.279 47.4885 215.13 43.9595C216.981 40.4305 219.527 37.7041 222.767 35.7793C226.073 33.7904 229.941 32.7959 234.371 32.7959C237.677 32.7959 240.685 33.5333 243.396 35.0093C246.173 36.4205 248.057 38.1851 249.049 40.3022V34.2392H257.678V79.2796C257.678 83.5146 256.818 87.1392 255.099 90.1552C253.38 93.2348 250.867 95.5765 247.561 97.1807C244.322 98.7843 240.354 99.5864 235.66 99.5864ZM235.461 72.0618C239.694 72.0618 243.066 70.6179 245.578 67.7307C248.157 64.8434 249.446 61.0264 249.446 56.2785C249.446 51.4664 248.157 47.6168 245.578 44.7296C242.999 41.8423 239.627 40.3984 235.461 40.3984C231.23 40.3984 227.825 41.8423 225.246 44.7296C222.734 47.6168 221.478 51.4664 221.478 56.2785C221.478 61.0264 222.767 64.8434 225.346 67.7307C227.924 70.6179 231.296 72.0618 235.461 72.0618Z" fill="white"/>
<path d="M269.412 82.263V34.2392H278.04V39.629C278.701 37.7683 280.156 36.164 282.404 34.8169C284.652 33.4692 287.263 32.7959 290.239 32.7959C293.148 32.7959 295.826 33.4051 298.272 34.624C300.719 35.8434 302.306 37.6721 303.033 40.1099C303.892 37.8644 305.479 36.0999 307.793 34.8169C310.174 33.4692 312.819 32.7959 315.728 32.7959C320.753 32.7959 324.588 34.2072 327.233 37.0303C329.877 39.8534 331.199 43.9595 331.199 49.3492V82.263H322.373V50.504C322.373 47.2956 321.645 44.8899 320.191 43.2857C318.802 41.6179 316.752 40.7837 314.042 40.7837C311.066 40.7837 308.752 41.8103 307.099 43.8633C305.512 45.8523 304.719 48.7716 304.719 52.6212V82.263H295.892V50.504C295.892 47.2956 295.165 44.8899 293.71 43.2857C292.322 41.6179 290.272 40.7837 287.561 40.7837C284.586 40.7837 282.272 41.8103 280.618 43.8633C279.031 45.8523 278.238 48.7716 278.238 52.6212V82.263H269.412Z" fill="white"/>
<path d="M356.693 83.7069C353.453 83.7069 350.544 83.0972 347.966 81.8783C345.453 80.6594 343.436 79.0231 341.915 76.97C340.461 74.8528 339.734 72.4145 339.734 69.6555C339.734 66.0629 340.924 63.1436 343.304 60.8976C345.684 58.6522 349.089 57.1127 353.519 56.2785L365.123 53.9684C367.437 53.5195 369.025 52.8136 369.884 51.8512C370.743 50.8888 371.173 49.4775 371.173 47.6168L372.364 58.8766L355.701 62.3415C353.453 62.7904 351.701 63.5925 350.445 64.7472C349.255 65.9026 348.66 67.5062 348.66 69.5593C348.66 71.6771 349.486 73.3769 351.139 74.6605C352.858 75.9435 355.173 76.5853 358.081 76.5853C360.462 76.5853 362.644 76.0717 364.627 75.0452C366.677 74.0187 368.264 72.6068 369.388 70.8108C370.578 68.9501 371.173 66.8329 371.173 64.4587V47.6168C371.173 45.3067 370.314 43.5107 368.594 42.2271C366.942 40.8799 364.661 40.2061 361.751 40.2061C358.048 40.2061 355.205 41.1043 353.222 42.9009C351.238 44.6975 350.081 47.2315 349.751 50.504L341.023 49.3492C341.353 45.9485 342.411 43.0292 344.196 40.5914C345.982 38.0889 348.362 36.164 351.338 34.8169C354.313 33.4692 357.85 32.7959 361.949 32.7959C367.768 32.7959 372.231 34.2392 375.338 37.1265C378.446 40.0137 380 43.7351 380 48.2901V82.263H371.372V76.0076C370.512 78.1248 368.76 79.9535 366.115 81.4935C363.536 82.9689 360.395 83.7069 356.693 83.7069Z" fill="white"/>
</svg>
