<svg width="393" height="135" viewBox="0 0 393 135" fill="none" xmlns="http://www.w3.org/2000/svg">
<path d="M221.882 44.8436C221.882 52.1961 216.119 57.614 209.047 57.614C201.975 57.614 196.212 52.1961 196.212 44.8436C196.212 37.4393 201.975 32.0732 209.047 32.0732C216.119 32.0732 221.882 37.4393 221.882 44.8436ZM216.263 44.8436C216.263 40.249 212.923 37.1054 209.047 37.1054C205.17 37.1054 201.831 40.249 201.831 44.8436C201.831 49.3921 205.17 52.5818 209.047 52.5818C212.923 52.5818 216.263 49.3863 216.263 44.8436Z" fill="#EA4335"/>
<path d="M249.57 44.8436C249.57 52.1961 243.807 57.614 236.735 57.614C229.663 57.614 223.901 52.1961 223.901 44.8436C223.901 37.4451 229.663 32.0732 236.735 32.0732C243.807 32.0732 249.57 37.4393 249.57 44.8436ZM243.952 44.8436C243.952 40.249 240.612 37.1054 236.735 37.1054C232.859 37.1054 229.519 40.249 229.519 44.8436C229.519 49.3921 232.859 52.5818 236.735 52.5818C240.612 52.5818 243.952 49.3863 243.952 44.8436Z" fill="#FBBC05"/>
<path d="M276.105 32.8448V55.7715C276.105 65.2025 270.532 69.0543 263.945 69.0543C257.744 69.0543 254.012 64.9146 252.604 61.5291L257.496 59.4967C258.367 61.5752 260.501 64.0279 263.939 64.0279C268.156 64.0279 270.769 61.4312 270.769 56.543V54.7064H270.573C269.315 56.2552 266.892 57.6082 263.835 57.6082C257.438 57.6082 251.577 52.0464 251.577 44.8897C251.577 37.6811 257.438 32.0732 263.835 32.0732C266.887 32.0732 269.309 33.4263 270.573 34.929H270.769V32.8505H276.105V32.8448ZM271.167 44.8897C271.167 40.393 268.162 37.1054 264.337 37.1054C260.461 37.1054 257.213 40.393 257.213 44.8897C257.213 49.3403 260.461 52.5818 264.337 52.5818C268.162 52.5818 271.167 49.3403 271.167 44.8897Z" fill="#4285F4"/>
<path d="M284.901 19.4062V56.8307H279.421V19.4062H284.901Z" fill="#34A853"/>
<path d="M306.256 49.0475L310.617 51.9494C309.209 54.0278 305.818 57.6091 299.957 57.6091C292.689 57.6091 287.261 52.0012 287.261 44.8387C287.261 37.2444 292.735 32.0684 299.328 32.0684C305.968 32.0684 309.215 37.3423 310.277 40.1923L310.859 41.6432L293.756 48.7136C295.065 51.2757 297.102 52.5827 299.957 52.5827C302.818 52.5827 304.802 51.1778 306.256 49.0475ZM292.833 44.453L304.266 39.7145C303.637 38.1196 301.745 37.0084 299.518 37.0084C296.663 37.0084 292.689 39.5245 292.833 44.453Z" fill="#EA4335"/>
<path d="M175.469 41.5218V36.1039H193.761C193.939 37.0482 194.032 38.1651 194.032 39.3742C194.032 43.4391 192.918 48.4655 189.331 52.0467C185.841 55.674 181.382 57.6086 175.475 57.6086C164.526 57.6086 155.32 48.7073 155.32 37.7794C155.32 26.8514 164.526 17.9502 175.475 17.9502C181.532 17.9502 185.846 20.3223 189.088 23.4142L185.258 27.2372C182.933 25.0608 179.784 23.3681 175.469 23.3681C167.474 23.3681 161.221 29.7993 161.221 37.7794C161.221 45.7594 167.474 52.1906 175.469 52.1906C180.655 52.1906 183.608 50.1122 185.5 48.2237C187.035 46.6921 188.044 44.5043 188.442 41.5161L175.469 41.5218Z" fill="#4285F4"/>
<path d="M170.332 77.735L164.699 93.2873H176.192L170.514 77.735H170.332ZM159.838 106.754H154.932L167.924 72.2939H172.967L185.959 106.754H181.053L177.736 97.4134H163.2L159.838 106.754Z" fill="#747474"/>
<path d="M188.195 83.1761H192.465V86.4407H192.647C193.306 85.2958 194.339 84.3436 195.736 83.5842C197.156 82.802 198.609 82.4053 200.097 82.4053C203.004 82.4053 205.23 83.2441 206.775 84.8991C208.342 86.5314 209.137 88.8778 209.137 91.9271V106.754H204.685V92.2445C204.594 88.3791 202.652 86.4407 198.871 86.4407C197.11 86.4407 195.623 87.1662 194.419 88.6171C193.238 90.0454 192.647 91.7344 192.647 93.6954V106.754H188.195V83.1761Z" fill="#747474"/>
<path d="M217.353 99.5445C217.353 100.701 217.83 101.664 218.807 102.446C219.772 103.206 220.919 103.58 222.26 103.58C224.099 103.58 225.757 102.9 227.211 101.54C228.687 100.157 229.437 98.5243 229.437 96.6427C228.04 95.5544 226.098 95.0103 223.622 95.0103C221.828 95.0103 220.329 95.4524 219.125 96.3253C217.944 97.1754 217.353 98.2523 217.353 99.5445ZM223.077 82.4053C226.348 82.4053 228.915 83.2894 230.8 85.0351C232.708 86.7921 233.662 89.1952 233.662 92.2445V106.754H229.437V103.489H229.255C227.404 106.187 224.951 107.525 221.896 107.525C219.284 107.525 217.104 106.754 215.355 105.212C213.628 103.671 212.765 101.755 212.765 99.4539C212.765 97.0054 213.685 95.0784 215.536 93.6501C217.376 92.1991 219.852 91.4737 222.941 91.4737C225.576 91.4737 227.733 91.9498 229.437 92.8793V91.8817C229.437 90.3401 228.812 89.0479 227.574 87.9823C226.359 86.8941 224.94 86.35 223.304 86.35C220.817 86.35 218.864 87.3929 217.444 89.4786L213.538 87.0302C215.684 83.9469 218.864 82.4053 223.077 82.4053Z" fill="#747474"/>
<path d="M242.95 72.2939V106.754H238.498V72.2939H242.95Z" fill="#747474"/>
<path d="M269.121 83.1758L254.311 117.137H249.769L255.265 105.257L245.499 83.1758H250.314L257.355 100.134H257.446L264.305 83.1758H269.121Z" fill="#747474"/>
<path d="M281.315 107.117C279.407 107.117 277.817 106.527 276.545 105.348C275.273 104.17 274.614 102.526 274.592 100.406V87.2116H270.412V83.1762H274.592V75.9668H278.998V83.1762H284.813V87.2116H278.998V98.9552C278.998 100.531 279.293 101.608 279.906 102.174C280.542 102.719 281.235 102.991 281.996 102.991C282.36 102.991 282.7 102.968 283.041 102.9C283.37 102.809 283.688 102.707 283.995 102.583L285.358 106.527C284.199 106.913 282.859 107.117 281.315 107.117Z" fill="#747474"/>
<path d="M294.522 75.0602C294.522 75.9104 294.204 76.6472 293.568 77.282C292.955 77.8941 292.228 78.1888 291.388 78.1888C290.502 78.1888 289.763 77.8941 289.162 77.282C288.548 76.6472 288.253 75.9104 288.253 75.0602C288.253 74.1874 288.548 73.4506 289.162 72.8385C289.763 72.2377 290.502 71.9316 291.388 71.9316C292.228 71.9316 292.955 72.2377 293.568 72.8385C294.204 73.4506 294.522 74.1874 294.522 75.0602ZM293.613 83.1764V106.754H289.162V83.1764H293.613Z" fill="#747474"/>
<path d="M308.567 107.525C305.047 107.525 302.139 106.334 299.845 103.943C297.574 101.528 296.438 98.5357 296.438 94.965C296.438 91.3376 297.574 88.3451 299.845 85.9873C302.139 83.6068 305.047 82.4053 308.567 82.4053C310.986 82.4053 313.087 83.0174 314.882 84.219C316.665 85.4319 318.016 87.0982 318.925 89.2066L314.882 90.8842C313.632 87.9257 311.441 86.4407 308.295 86.4407C306.262 86.4407 304.502 87.2569 303.025 88.8892C301.572 90.5215 300.845 92.5505 300.845 94.965C300.845 97.3908 301.572 99.4085 303.025 101.041C304.502 102.673 306.262 103.489 308.295 103.489C311.531 103.489 313.803 102.016 315.109 99.0458L319.061 100.723C318.209 102.843 316.858 104.509 315.018 105.711C313.167 106.913 311.02 107.525 308.567 107.525Z" fill="#747474"/>
<path d="M341 100.225C341 102.288 340.091 104.022 338.274 105.439C336.48 106.822 334.231 107.525 331.506 107.525C329.144 107.525 327.054 106.901 325.237 105.666C323.442 104.43 322.159 102.798 321.375 100.769L325.328 99.0911C325.93 100.519 326.781 101.619 327.872 102.401C328.985 103.195 330.2 103.58 331.506 103.58C332.925 103.58 334.106 103.285 335.049 102.673C336.014 102.072 336.503 101.347 336.503 100.497C336.503 98.9891 335.333 97.8896 333.005 97.1868L328.962 96.1892C324.351 95.0103 322.057 92.7886 322.057 89.524C322.057 87.3816 322.931 85.6586 324.692 84.355C326.441 83.0627 328.689 82.4053 331.415 82.4053C333.504 82.4053 335.39 82.904 337.093 83.9016C338.785 84.8991 339.966 86.2367 340.637 87.8917L336.684 89.524C336.23 88.5264 335.481 87.7556 334.458 87.2115C333.459 86.6447 332.335 86.35 331.097 86.35C329.938 86.35 328.894 86.6447 327.962 87.2115C327.054 87.7896 326.6 88.5038 326.6 89.3426C326.6 90.6802 327.872 91.6437 330.415 92.2445L333.959 93.1513C338.649 94.3075 341 96.6653 341 100.225Z" fill="#747474"/>
<path d="M112.977 29.4816V102.517C112.977 110.695 118.624 115.243 124.618 115.243C130.161 115.243 136.259 111.37 136.259 102.517V30.0349C136.259 22.548 130.716 17.8623 124.618 17.8623C118.52 17.8623 112.977 23.0322 112.977 29.4816Z" fill="#F8AB00"/>
<path d="M82.4885 66.5528V102.517C82.4885 110.696 88.1358 115.243 94.1296 115.243C99.6729 115.243 105.771 111.37 105.771 102.517V67.1061C105.771 59.6193 100.227 54.9336 94.1296 54.9336C88.0319 54.9336 82.4885 60.1035 82.4885 66.5528Z" fill="#E37300"/>
<path d="M75.2821 103.624C75.2821 110.039 70.0679 115.243 63.6411 115.243C57.2142 115.243 52 110.039 52 103.624C52 97.2093 57.2142 92.0049 63.6411 92.0049C70.0679 92.0049 75.2821 97.2093 75.2821 103.624Z" fill="#E37300"/>
</svg>
