<svg width="427" height="124" viewBox="0 0 427 124" fill="none" xmlns="http://www.w3.org/2000/svg">
<path d="M59.0388 34.2744H69.8133V57.9187H92.5375V34.2744H103.326V92.3139H92.5375V68.173H69.8133V92.3139H59.0388V34.2744ZM137.46 73.4095C137.46 78.2681 133.452 82.2218 128.534 82.2218C123.615 82.2218 119.61 78.2681 119.61 73.4095V48.4215H109.392V73.4095C109.392 83.8343 117.979 92.3139 128.534 92.3139C139.087 92.3139 147.674 83.8343 147.674 73.4095V48.4215H137.46V73.4095ZM176.199 48.7142C171.13 48.7142 167.592 50.167 164.176 53.4798V34.2744H153.924V69.8672C153.924 83.1899 163.676 92.3139 174.633 92.3139C186.813 92.3139 197.485 83.0271 197.485 70.5147C197.485 58.1607 187.644 48.7142 176.199 48.7142ZM176.454 82.9467C169.507 82.9467 164.195 77.2165 164.195 70.5147C164.195 63.8116 169.507 58.0797 176.454 58.0797C182.339 58.0797 187.654 63.8116 187.654 70.5147C187.654 77.2165 182.339 82.9467 176.454 82.9467ZM214.702 51.2651C214.702 46.1753 218.136 44.5615 221.895 44.5615C224.921 44.5615 228.925 46.8221 231.539 49.5679L238.24 41.8174C234.891 37.3773 228.108 34.3084 222.549 34.3084C211.431 34.3084 203.42 40.6871 203.42 51.2651C203.42 70.8843 227.862 64.6653 227.862 75.6487C227.862 79.036 224.512 82.0262 220.672 82.0262C214.621 82.0262 212.658 79.1194 209.88 76.0505L202.44 83.6388C207.184 89.3719 213.067 92.2799 220.098 92.2799C230.642 92.2799 239.143 85.8207 239.143 75.7268C239.143 53.9281 214.702 60.7111 214.702 51.2651ZM266.13 48.1455C255.175 48.1455 245.422 57.2641 245.422 70.5898V106.274H255.673V86.9778C259.09 90.2882 262.626 91.7434 267.697 91.7434C279.141 91.7434 288.983 82.2981 288.983 69.9441C288.983 57.4299 278.308 48.1455 266.13 48.1455ZM267.952 82.3791C261.006 82.3791 255.694 76.6412 255.694 69.9441C255.694 63.2411 261.006 57.5092 267.952 57.5092C273.837 57.5092 279.152 63.2411 279.152 69.9441C279.152 76.6412 273.837 82.3791 267.952 82.3791ZM364.439 82.9467C358.393 82.9467 356.676 80.3642 356.676 76.4064V58.8869H366.075V50.0067H356.676V38.2984L346.298 42.8994V78.5865C346.298 87.7111 352.672 92.3139 361.414 92.3139C362.722 92.3139 364.523 92.2304 365.505 91.9914L368.039 82.7881C366.895 82.8662 365.587 82.9467 364.439 82.9467Z" fill="white"/>
<path d="M337.182 59.5507C335.212 56.1591 332.441 53.4401 328.976 51.3932C326.387 49.8851 323.702 48.9279 320.677 48.5168V37.7402C323.702 36.4549 325.58 33.61 325.58 30.2911C325.58 25.7673 321.954 22.1015 317.437 22.1015C312.916 22.1015 309.227 25.7673 309.227 30.2911C309.227 33.61 310.996 36.4549 314.022 37.7402V48.5216C311.601 48.8716 309.092 49.6265 306.8 50.7865C302.118 47.2291 286.768 35.5583 277.789 28.7418C278.002 27.9735 278.166 27.1816 278.166 26.3461C278.166 21.3356 274.111 17.2744 269.101 17.2744C264.092 17.2744 260.039 21.3356 260.039 26.3461C260.039 31.3566 264.096 35.4184 269.106 35.4184C270.814 35.4184 272.395 34.9183 273.758 34.0962L275.653 35.5347L301.692 54.3077C300.316 55.5724 299.034 57.0109 298.008 58.625C295.93 61.9155 294.66 65.5359 294.66 69.4851V70.3091C294.66 73.0813 295.186 75.6986 296.083 78.1572C296.873 80.3041 298.027 82.2559 299.457 84.0208L290.815 92.6892C289.562 92.2227 288.202 92.127 286.897 92.4134C285.591 92.6999 284.396 93.3564 283.454 94.3045C282.801 94.9542 282.284 95.7271 281.932 96.5782C281.58 97.4293 281.401 98.3419 281.404 99.263C281.404 101.136 282.134 102.896 283.457 104.22C284.106 104.873 284.878 105.391 285.729 105.744C286.579 106.096 287.491 106.277 288.412 106.274C289.332 106.277 290.245 106.097 291.095 105.744C291.946 105.391 292.718 104.873 293.368 104.22C294.02 103.57 294.537 102.798 294.889 101.947C295.241 101.096 295.421 100.184 295.419 99.263C295.419 98.5383 295.307 97.8311 295.096 97.1591L304.029 88.22C305.253 89.0664 306.576 89.779 307.998 90.3935C310.802 91.6067 313.898 92.346 317.285 92.346H317.906C321.651 92.346 325.184 91.4657 328.505 89.6651C332.005 87.7623 334.744 85.1602 336.813 81.8382C338.893 78.5072 340.039 74.8268 340.039 70.7777V70.5755C340.039 66.5924 339.117 62.9174 337.182 59.5507ZM326.268 78.3025C323.843 80.9985 321.057 82.6592 317.906 82.6592H317.387C315.587 82.6592 313.827 82.1615 312.104 81.2564C310.162 80.2599 308.686 78.8383 307.477 77.0384C306.228 75.2718 305.551 73.3429 305.551 71.2977V70.6766C305.551 68.666 305.936 66.7595 306.908 64.9589C307.947 62.9907 309.35 61.4602 311.216 60.2433C313.048 59.0349 315.005 58.4421 317.184 58.4421H317.387C319.363 58.4421 321.234 58.832 322.999 59.7359C324.798 60.6998 326.268 62.0166 327.407 63.7487C328.514 65.4814 329.172 67.3504 329.384 69.3864C329.417 69.8096 329.434 70.2431 329.434 70.6572C329.434 73.4204 328.379 75.9795 326.268 78.3025Z" fill="#F8761F"/>
</svg>
