<svg width="420" height="87" viewBox="0 0 420 87" fill="none" xmlns="http://www.w3.org/2000/svg">
<path d="M164.282 10.2898H177.32L199.491 51.3667L221.644 10.2898H234.407V77.7684H223.76V26.0406L204.324 61.8615H194.348L174.912 26.0406V77.7857H164.282V10.2898ZM268.704 78.9827C263.773 78.9827 259.444 77.8667 255.718 75.6348C252.001 73.4267 248.974 70.2114 246.98 66.3543C244.833 62.1536 243.757 57.4796 243.85 52.7545C243.85 47.5851 244.87 43.0056 246.911 39.0159C248.941 35.0261 251.773 31.9037 255.408 29.6487C259.031 27.4052 263.194 26.2834 267.895 26.2834C272.574 26.2834 276.598 27.4167 279.97 29.6834C283.341 31.95 285.938 35.1244 287.761 39.2067C289.584 43.2889 290.496 48.0766 290.496 53.5698V56.5534H254.376C254.838 60.2646 256.565 63.6985 259.261 66.2675C261.841 68.6383 265.109 69.8236 269.065 69.8236C272.241 69.8236 274.976 69.3379 277.269 68.3665C279.563 67.4066 281.713 65.9437 283.719 63.9778L289.361 71.0726C283.766 76.3327 276.35 79.1723 268.704 78.9827ZM276.461 38.9465C275.322 37.7823 273.956 36.8696 272.449 36.2664C270.941 35.6632 269.326 35.3826 267.706 35.4425C266.072 35.4028 264.447 35.6991 262.93 36.3135C261.413 36.9279 260.036 37.8473 258.882 39.0159C256.4 41.6417 254.825 45.0065 254.393 48.6086H280.279C279.97 44.4916 278.697 41.271 276.461 38.9465ZM303.396 36.4139H293.609V27.4977H303.413V12.753H313.664V27.4977H328.542V36.4139H313.664V59.0166C313.664 62.7866 314.295 65.4696 315.556 67.0655C316.806 68.6845 318.956 69.494 322.006 69.494C323.348 69.494 324.495 69.4362 325.446 69.3206C326.375 69.2049 327.407 69.0488 328.542 68.8522V77.6817C325.779 78.5074 322.91 78.9165 320.028 78.8959C308.952 78.8959 303.413 72.6916 303.413 60.2829L303.396 36.4139ZM382 77.7684H371.921V70.743C370.132 73.3797 367.862 75.4092 365.11 76.8317C362.358 78.2657 359.216 78.9827 355.684 78.9827C351.361 78.9827 347.525 77.8493 344.177 75.5827C340.766 73.2291 338.045 69.9938 336.3 66.2155C334.341 61.9576 333.359 57.3091 333.427 52.6157C333.427 47.4695 334.402 42.9189 336.351 38.9638C338.301 35.0088 340.989 31.9095 344.418 29.666C347.847 27.4225 351.791 26.295 356.252 26.2834C359.6 26.2834 362.616 26.9542 365.299 28.2956C367.93 29.5966 370.201 31.5395 371.921 33.9507V27.4977H382V77.7684ZM371.749 45.0872C370.734 42.3357 368.899 39.9683 366.497 38.3098C364.095 36.6513 361.244 35.7831 358.333 35.8241C356.359 35.7444 354.392 36.1111 352.576 36.8975C350.761 37.6839 349.143 38.87 347.841 40.3689C345.226 43.3988 343.919 47.4753 343.919 52.5983C343.919 57.7792 345.181 61.8846 347.703 64.9145C348.945 66.4069 350.511 67.5902 352.28 68.3724C354.049 69.1547 355.973 69.5148 357.903 69.4246C360.908 69.4681 363.857 68.5976 366.365 66.9267C368.83 65.3098 370.717 62.9388 371.749 60.1615V45.0872ZM112.872 8C104.306 8 97.6324 14.5917 91.578 22.9875C83.2532 12.1285 76.3044 8 67.9796 8C51.0032 8 38 30.6201 38 54.5759C38 69.5634 45.0692 79 56.92 79C65.4684 79 71.5916 74.8888 82.5136 55.3565L90.1848 41.4791C91.2741 43.2832 92.4265 45.2318 93.642 47.325L98.7676 56.1371C108.726 73.2236 114.282 79 124.344 79C135.885 79 142.318 69.4246 142.318 54.1249C142.318 29.0589 129.022 8 112.872 8ZM74.1888 50.0657C65.348 64.2727 62.2864 67.4471 57.3672 67.4471C52.2932 67.4471 49.2832 62.8849 49.2832 54.7667C49.2832 37.3853 57.7456 19.6049 67.8248 19.6049C73.2944 19.6049 77.8524 22.8314 84.8528 33.0833C78.2136 43.526 74.1888 50.0657 74.1888 50.0657ZM107.557 48.279L101.451 37.8363C99.9133 35.2604 98.3248 32.7157 96.6864 30.2038C102.19 21.4957 106.748 17.1591 112.149 17.1591C123.381 17.1591 132.376 34.1068 132.376 54.9228C132.376 62.8502 129.831 67.4471 124.585 67.4471C119.545 67.4471 117.137 64.0472 107.557 48.279Z" fill="white"/>
</svg>
