<svg width="356" height="72" viewBox="0 0 356 72" fill="none" xmlns="http://www.w3.org/2000/svg">
<path d="M275.618 6.86791V16.1167H255.718V64.7752H245.768V16.1173H225.454V6.86791H275.618ZM277.855 59.2591C278.556 59.2591 279.169 59.5108 279.688 60.0154C280.215 60.5194 280.477 61.1234 280.484 61.8269C280.483 62.2885 280.354 62.7409 280.113 63.1345C279.876 63.5229 279.544 63.8448 279.149 64.07C278.758 64.3034 278.31 64.425 277.855 64.4218C277.126 64.4218 276.506 64.1695 275.988 63.6655C275.468 63.1609 275.211 62.5501 275.218 61.8269C275.212 61.1234 275.468 60.5194 275.988 60.0154C276.506 59.5108 277.126 59.2591 277.855 59.2591ZM80.6403 64.7752L43.9506 19.2212V64.7516H34V6.84375H46.4374L92.7908 64.342L92.7914 16.1173L92.7874 6.86791H142.951V16.1167H102.741V30.9957H135.078V40.2451H102.741V55.5264H142.952V64.7752H80.6403ZM174.842 40.1569L181.363 48.2555L168 64.8438H154.942L174.842 40.1569ZM168 6.89207L184.836 27.7777L201.619 6.95613L214.641 6.93646L191.355 35.8657L214.678 64.7994H201.619L154.979 6.89207H168ZM294.837 40.0271H299.246V56.9963C299.24 58.5556 298.902 59.889 298.242 61.0111C297.575 62.132 296.65 62.9884 295.465 63.5924C294.284 64.1891 292.902 64.4948 291.331 64.4948C289.895 64.4948 288.608 64.2363 287.462 63.7318C286.316 63.2272 285.406 62.4709 284.738 61.4752C284.063 60.4801 283.733 59.2388 283.733 57.7526H288.15C288.157 58.4027 288.305 58.9663 288.588 59.4383C288.866 59.9041 289.274 60.2795 289.761 60.5194C290.266 60.7723 290.847 60.8981 291.5 60.8981C292.208 60.8981 292.815 60.752 293.307 60.4531C293.798 60.1609 294.176 59.7232 294.44 59.1394C294.696 58.5618 294.831 57.8453 294.837 56.9958V40.0271ZM317.388 46.6631C317.281 45.6348 316.809 44.8313 315.986 44.261C315.157 43.6833 314.085 43.3984 312.77 43.3984C311.847 43.3984 311.051 43.5378 310.391 43.8097C309.73 44.0884 309.218 44.4599 308.867 44.9313C308.517 45.4022 308.341 45.9399 308.327 46.5439C308.327 47.048 308.449 47.4862 308.685 47.8509C308.929 48.2332 309.259 48.5537 309.649 48.787C310.072 49.0528 310.524 49.2687 310.998 49.4304C311.496 49.6029 311.995 49.749 312.494 49.8687L314.793 50.4328C315.717 50.6452 316.614 50.9301 317.47 51.2953C318.325 51.6538 319.101 52.1118 319.781 52.6624C320.463 53.2131 321.002 53.8767 321.4 54.6532C321.798 55.4297 322 56.3389 322 57.3874C322 58.8006 321.636 60.0418 320.901 61.1167C320.166 62.1854 319.108 63.0215 317.719 63.6256C316.337 64.2229 314.664 64.528 312.696 64.528C310.795 64.528 309.137 64.2358 307.741 63.652C306.339 63.0749 305.246 62.2248 304.457 61.11C303.669 59.9952 303.244 58.6348 303.183 57.0356H307.553C307.613 57.8717 307.883 58.5685 308.341 59.1326C308.806 59.69 309.413 60.1014 310.155 60.3801C310.903 60.6526 311.739 60.7919 312.662 60.7919C313.627 60.7919 314.476 60.6458 315.211 60.3604C315.939 60.0749 316.512 59.6771 316.923 59.1591C317.341 58.6477 317.551 58.0442 317.557 57.3542C317.551 56.7238 317.361 56.1995 316.997 55.7877C316.626 55.3764 316.114 55.0314 315.46 54.7527C314.8 54.474 314.031 54.2217 313.155 54.0031L310.364 53.2996C308.348 52.7883 306.75 52.0123 305.583 50.97C304.411 49.9282 303.831 48.5482 303.831 46.8159C303.831 45.396 304.222 44.148 305.011 43.0793C305.793 42.0117 306.865 41.1818 308.22 40.5912C309.581 39.9939 311.119 39.7017 312.831 39.7017C314.571 39.7017 316.094 39.9939 317.409 40.5912C318.723 41.1818 319.755 42.0044 320.503 43.0529C321.251 44.1019 321.643 45.3027 321.663 46.6631H317.388Z" fill="white"/>
</svg>
