<svg width="433" height="136" viewBox="0 0 433 136" fill="none" xmlns="http://www.w3.org/2000/svg">
<path d="M102.285 29.0982C102.285 29.0982 101.229 29.4149 99.4325 29.9954C99.1155 29.0454 98.6929 27.8316 98.0589 26.6705C96.0514 22.8178 93.0929 20.8123 89.5004 20.7595C89.2363 20.7595 89.025 20.7595 88.7608 20.8123C88.6552 20.7068 88.5495 20.5484 88.4438 20.4429C86.9118 18.754 84.9042 17.9624 82.5269 18.0152C77.9306 18.1735 73.3344 21.4984 69.5835 27.4094C66.942 31.5787 64.9872 36.8036 64.4061 40.8146C59.1231 42.4506 55.425 43.6117 55.3193 43.6117C52.625 44.4561 52.5721 44.5617 52.2023 47.0422C51.9382 48.9421 44.9646 102.985 44.9646 102.985L102.972 113.013V28.9927C102.708 28.9927 102.444 29.0454 102.285 29.0982ZM88.8665 33.2675C85.8023 34.2175 82.4212 35.2731 79.0929 36.2758C80.0438 32.6342 81.8401 29.0454 84.0589 26.6705C84.9042 25.7733 86.0137 24.8233 87.3872 24.2428C88.6552 26.9344 88.9193 30.6815 88.8665 33.2675ZM82.5797 21.0762C83.6363 21.0762 84.5872 21.2873 85.3797 21.8151C84.1118 22.4484 82.9495 23.3984 81.7872 24.6122C78.8816 27.726 76.6099 32.6342 75.7118 37.3313C72.9118 38.1758 70.2174 39.0202 67.6816 39.8118C69.2665 32.3703 75.5004 21.2873 82.5797 21.0762ZM73.5986 63.2445C73.9155 68.1527 86.9118 69.2611 87.6514 80.8191C88.2325 89.8966 82.8438 96.1242 75.025 96.5992C65.7269 97.1798 60.5495 91.691 60.5495 91.691L62.5042 83.2996C62.5042 83.2996 67.6816 87.205 71.8023 86.9411C74.4967 86.7828 75.4476 84.5662 75.3948 83.0357C74.9721 76.597 64.4061 76.9664 63.7721 66.4111C63.191 57.4919 69.0552 48.5199 81.9457 47.6755C86.9646 47.3588 89.5004 48.6255 89.5004 48.6255L86.542 59.6558C86.542 59.6558 83.2665 58.178 79.3571 58.3891C73.6514 58.7585 73.5457 62.3473 73.5986 63.2445ZM91.9306 32.3176C91.8778 29.9954 91.6137 26.7233 90.5042 23.9261C93.991 24.6122 95.7344 28.5177 96.474 30.8926C95.1533 31.3148 93.6212 31.7898 91.9306 32.3176ZM104.874 112.802L128.965 106.838C128.965 106.838 118.61 36.8563 118.557 36.3814C118.504 35.9064 118.082 35.6425 117.712 35.5897C117.342 35.5369 110.58 35.4314 110.58 35.4314C110.58 35.4314 106.459 31.4204 104.874 29.8899V112.802Z" fill="white"/>
<path d="M163.945 72.0739C160.98 70.5205 159.47 69.1336 159.47 67.3029C159.47 64.9729 161.596 63.475 164.897 63.475C168.757 63.475 172.17 65.0283 172.17 65.0283L174.855 56.8733C174.855 56.8733 172.394 54.9871 165.12 54.9871C154.994 54.9871 147.944 60.7567 147.944 68.8562C147.944 73.4608 151.245 76.9558 155.609 79.4522C159.19 81.3939 160.421 82.8363 160.421 84.9444C160.421 87.108 158.63 88.8833 155.329 88.8833C150.462 88.8833 145.818 86.3868 145.818 86.3868L142.965 94.5419C142.965 94.5419 147.217 97.3712 154.378 97.3712C164.785 97.3712 172.338 92.2673 172.338 83.1137C172.226 78.1208 168.477 74.6813 163.945 72.0739ZM205.459 54.8761C200.312 54.8761 196.284 57.3171 193.207 60.9786L193.095 60.9231L197.571 37.8448H185.989L174.688 96.65H186.269L190.129 76.5675C191.64 68.9672 195.612 64.2517 199.305 64.2517C201.935 64.2517 202.942 66.0269 202.942 68.5234C202.942 70.0767 202.83 72.0739 202.438 73.6272L198.074 96.65H209.656L214.187 72.906C214.691 70.4096 215.027 67.4138 215.027 65.3612C214.971 58.7595 211.558 54.8761 205.459 54.8761ZM241.211 54.8761C227.224 54.8761 217.992 67.3584 217.992 81.283C217.992 90.1592 223.531 97.3712 233.937 97.3712C247.645 97.3712 256.876 85.2218 256.876 70.9643C256.932 62.6983 252.121 54.8761 241.211 54.8761ZM235.504 88.6059C231.532 88.6059 229.909 85.2773 229.909 81.0611C229.909 74.4594 233.322 63.7524 239.644 63.7524C243.728 63.7524 245.127 67.3029 245.127 70.6869C245.127 77.7325 241.602 88.6059 235.504 88.6059ZM286.585 54.8761C278.752 54.8761 274.332 61.7552 274.332 61.7552H274.221L274.892 55.5973H264.597C264.094 59.7581 263.143 66.1379 262.248 70.8534L254.247 112.96H265.828L269.073 95.9288H269.353C269.353 95.9288 271.759 97.4266 276.123 97.4266C289.774 97.4266 298.67 83.5575 298.67 69.5774C298.614 61.8107 295.09 54.8761 286.585 54.8761ZM275.507 88.7168C272.486 88.7168 270.696 86.997 270.696 86.997L272.598 76.2901C273.941 69.0781 277.745 64.3626 281.774 64.3626C285.354 64.3626 286.417 67.6357 286.417 70.6869C286.473 78.1208 281.997 88.7168 275.507 88.7168ZM315.175 38.3996C311.483 38.3996 308.517 41.3399 308.517 45.0568C308.517 48.4409 310.699 50.8264 314 50.8264H314.112C317.749 50.8264 320.826 48.3854 320.882 44.1692C320.938 40.7851 318.644 38.3996 315.175 38.3996ZM298.95 96.5945H310.531L318.364 55.7638H306.727M347.905 55.7083H339.849L340.24 53.8221C340.912 49.8832 343.261 46.4437 347.178 46.4437C349.248 46.4437 350.871 47.0539 350.871 47.0539L353.108 38.0113C353.108 38.0113 351.15 37.0127 346.786 37.0127C342.702 37.0127 338.562 38.1777 335.429 40.8406C331.456 44.1692 329.61 48.9956 328.715 53.8776L328.379 55.7638H322.952L321.218 64.4736H326.645L320.49 96.65H332.072L338.226 64.4736H346.227L347.905 55.7083ZM375.824 55.7638C375.824 55.7638 368.55 73.9046 365.361 83.8349H365.249C365.026 80.6173 362.396 55.7638 362.396 55.7638H350.199L357.193 93.1549C357.305 93.9871 357.249 94.4864 356.913 95.0411C355.57 97.6485 353.276 100.145 350.591 101.976C348.409 103.529 345.947 104.583 343.989 105.249L347.234 115.013C349.584 114.513 354.507 112.572 358.591 108.744C363.851 103.862 368.774 96.2616 373.81 85.943L387.965 55.7083H375.824V55.7638Z" fill="white"/>
</svg>
