<svg width="494" height="113" viewBox="0 0 494 113" fill="none" xmlns="http://www.w3.org/2000/svg">
<path d="M279.689 46.2111H263.701V47.9411C268.702 47.9411 269.506 49.0343 269.506 55.5038V67.1667C269.506 73.6353 268.703 74.82 263.701 74.82C259.862 74.2738 257.27 72.1772 253.698 68.1684L249.589 63.6135C255.126 62.6101 258.073 59.0578 258.073 55.0482C258.073 50.0385 253.877 46.2119 246.016 46.2119H230.296V47.9411C235.297 47.9411 236.102 49.0343 236.102 55.5038V67.1667C236.102 73.6353 235.297 74.82 230.296 74.82V76.5508H248.07V74.8192C243.069 74.8192 242.265 73.6353 242.265 67.1667V63.887H243.783L253.697 76.5508H279.689C292.461 76.5508 297.999 69.6274 297.999 61.3348C297.999 53.0439 292.462 46.2111 279.689 46.2111ZM242.266 61.0613V48.9445H245.927C249.946 48.9445 251.733 51.7686 251.733 55.049C251.733 58.2381 249.946 61.0613 245.927 61.0613H242.266ZM279.957 73.7268H279.331C276.117 73.7268 275.671 72.907 275.671 68.7154V48.9445H279.957C289.247 48.9445 290.943 55.8679 290.943 61.2442C290.943 66.8017 289.245 73.7268 279.957 73.7268ZM180.549 64.434L186.712 45.8461C188.499 40.4707 187.695 38.9227 181.978 38.9227V37.0996H198.77V38.9227C193.143 38.9227 191.804 40.2886 189.571 46.9402L179.388 78.0996H178.227L169.116 49.5805L159.826 78.0996H158.665L148.752 46.9402C146.609 40.2886 145.18 38.9227 139.999 38.9227V37.0996H159.827V38.9227C154.558 38.9227 153.127 40.198 155.004 45.8461L160.988 64.4332L170.009 37.0996H171.706L180.549 64.434ZM210.915 77.7347C201.091 77.7347 193.052 70.3549 193.052 61.334C193.052 52.4062 201.091 45.0248 210.915 45.0248C220.741 45.0248 228.778 52.4062 228.778 61.334C228.778 70.3549 220.741 77.7347 210.915 77.7347ZM210.915 47.8513C202.699 47.8513 199.84 55.4124 199.84 61.3348C199.84 67.3495 202.699 74.82 210.915 74.82C219.222 74.82 222.081 67.3495 222.081 61.3348C222.081 55.4124 219.222 47.8513 210.915 47.8513Z" fill="white"/>
<path d="M319.826 74.2216V76.0051H299.38V74.2216C305.363 74.2216 306.434 72.7059 306.434 63.7878V49.5225C306.434 40.6037 305.363 39.1782 299.38 39.1782V37.3939H317.862C327.057 37.3939 332.148 42.1202 332.148 48.4518C332.148 54.6052 327.057 59.4194 317.862 59.4194H312.773V63.787C312.773 72.7059 313.843 74.2216 319.826 74.2216ZM317.862 40.6037H312.773V56.1202H317.862C322.862 56.1202 325.183 52.6428 325.183 48.4518C325.183 44.1722 322.862 40.6037 317.862 40.6037ZM393.484 67.6232L393.038 69.2284C392.235 72.1705 391.251 73.2412 384.912 73.2412H383.662C379.021 73.2412 378.217 72.1705 378.217 65.8405V61.7382C385.181 61.7382 385.717 62.3623 385.717 66.9999H387.413V53.7119H385.716C385.716 58.3487 385.181 58.9728 378.217 58.9728V48.9864H383.126C389.466 48.9864 390.447 50.0571 391.251 52.9992L391.699 54.6923H393.126L392.503 46.3112H366.252V48.0044C371.251 48.0044 372.056 49.0743 372.056 55.4059V66.8201C372.056 72.6116 371.373 74.0704 367.431 74.2787C363.685 73.7069 361.113 71.666 357.593 67.8006L353.485 63.3427C359.022 62.3607 361.969 58.8841 361.969 54.96C361.969 50.0571 357.772 46.312 349.915 46.312H334.202V48.0044C339.201 48.0044 340.005 49.0743 340.005 55.4059V66.8201C340.005 73.1509 339.202 74.3103 334.202 74.3103V76.0043H351.969V74.3095C346.97 74.3095 346.166 73.1509 346.166 66.8201V63.6112H347.684L357.594 76.0051H394.289L394.825 67.624L393.484 67.6232ZM346.165 60.8465V48.9872H349.825C353.843 48.9872 355.63 51.751 355.63 54.9616C355.63 58.0826 353.843 60.8457 349.825 60.8457L346.165 60.8465ZM411.609 77.1645C408.037 77.1645 404.912 75.2923 403.573 74.1321C403.126 74.5788 402.323 75.9164 402.145 77.1645H400.448V64.8593H402.234C402.949 70.7434 407.055 74.2216 412.323 74.2216C415.18 74.2216 417.501 72.6172 417.501 69.942C417.501 67.624 415.448 65.8397 411.788 64.1465L406.698 61.739C403.126 60.0435 400.448 57.1006 400.448 53.1781C400.448 48.8985 404.466 45.2429 410.002 45.2429C412.949 45.2429 415.447 46.3128 416.967 47.5609C417.412 47.2045 417.859 46.2225 418.127 45.1518H419.824V55.6759H417.948C417.322 51.4842 415.002 48.0067 410.27 48.0067C407.771 48.0067 405.448 49.4338 405.448 51.6639C405.448 53.982 407.323 55.2293 411.609 57.1917L416.519 59.5992C420.805 61.6495 422.501 64.9504 422.501 67.6248C422.501 73.242 417.59 77.1645 411.609 77.1645ZM439.107 77.1645C435.536 77.1645 432.41 75.2923 431.072 74.1321C430.625 74.5788 429.822 75.9164 429.645 77.1645H427.948V64.8593H429.733C430.446 70.7434 434.554 74.2216 439.822 74.2216C442.679 74.2216 445.001 72.6172 445.001 69.942C445.001 67.624 442.947 65.8397 439.286 64.1465L434.196 61.739C430.625 60.0435 427.946 57.1006 427.946 53.1781C427.946 48.8985 431.964 45.2429 437.5 45.2429C440.447 45.2429 442.946 46.3128 444.465 47.5609C444.91 47.2045 445.357 46.2225 445.624 45.1518H447.321V55.6759H445.446C444.821 51.4842 442.5 48.0067 437.769 48.0067C435.268 48.0067 432.946 49.4338 432.946 51.6639C432.946 53.982 434.821 55.2293 439.107 57.1917L444.017 59.5992C448.303 61.6495 449.999 64.9504 449.999 67.6248C449.999 73.242 445.089 77.1645 439.107 77.1645ZM50.5455 56.098C50.5455 71.7183 59.6353 85.2162 72.8153 91.6135L53.9664 40.0382C51.7059 45.0913 50.5401 50.5636 50.5455 56.098ZM116.733 54.1079C116.733 49.2311 114.979 45.8535 113.474 43.2242C111.471 39.9741 109.594 37.2213 109.594 33.9711C109.594 30.3433 112.349 26.9664 116.229 26.9664C116.404 26.9664 116.57 26.9886 116.741 26.9981C109.711 20.5659 100.346 16.6395 90.0585 16.6395C76.2544 16.6395 64.1101 23.7123 57.0447 34.4265C57.9725 34.4534 58.8455 34.4732 59.5877 34.4732C63.7207 34.4732 70.1184 33.9719 70.1184 33.9719C72.2483 33.8468 72.4989 36.971 70.3722 37.2229C70.3722 37.2229 68.2311 37.4747 65.849 37.599L80.2383 80.3426L88.8849 54.4429L82.729 37.5982C80.6015 37.4731 78.5858 37.2213 78.5858 37.2213C76.4558 37.0969 76.7064 33.8452 78.8347 33.9711C78.8347 33.9711 85.3609 34.4716 89.2433 34.4716C93.3747 34.4716 99.774 33.9711 99.774 33.9711C101.905 33.8452 102.155 36.9694 100.027 37.2213C100.027 37.2213 97.8819 37.4731 95.5046 37.5974L109.784 80.0171L113.725 66.8629C115.433 61.4056 116.733 57.4863 116.733 54.1079ZM90.7515 59.5501L78.8966 93.9545C82.5211 95.0209 86.28 95.5623 90.0585 95.5621C94.5275 95.5632 98.9643 94.8067 103.18 93.3249C103.07 93.1524 102.977 92.9706 102.899 92.7816L90.7515 59.5501ZM124.73 37.1658C124.899 38.4227 124.996 39.7713 124.996 41.2238C124.996 45.2278 124.247 49.7292 121.991 55.3576L109.922 90.2086C121.669 83.367 129.57 70.6571 129.57 56.0996C129.581 49.4817 127.916 42.9686 124.73 37.1658ZM90.0585 10.0996C64.662 10.0996 43.9987 30.7345 43.9987 56.098C43.9987 81.4655 64.662 102.1 90.0585 102.1C115.455 102.1 136.121 81.4655 136.121 56.098C136.121 30.7345 115.455 10.0996 90.0585 10.0996ZM90.0585 99.9907C65.8268 99.9907 46.1104 80.3006 46.1104 56.098C46.1104 31.8978 65.826 12.2086 90.0585 12.2086C114.291 12.2086 134.005 31.8978 134.005 56.098C134.005 80.3006 114.29 99.9907 90.0585 99.9907Z" fill="white"/>
</svg>
